Coordinates
version=1
nRows=13
nColumns=40
inDegrees=yes

Units are S.I. units (second, meters, Newtons, ...)
Angles are in degrees.

endheader
time	pelvis_tilt	pelvis_list	pelvis_rotation	pelvis_tx	pelvis_ty	pelvis_tz	hip_flexion_r	hip_adduction_r	hip_rotation_r	knee_angle_r	knee_angle_r_beta	ankle_angle_r	subtalar_angle_r	mtp_angle_r	hip_flexion_l	hip_adduction_l	hip_rotation_l	knee_angle_l	knee_angle_l_beta	ankle_angle_l	subtalar_angle_l	mtp_angle_l	lumbar_extension	lumbar_bending	lumbar_rotation	arm_flex_r	arm_add_r	arm_rot_r	elbow_flex_r	pro_sup_r	wrist_flex_r	wrist_dev_r	arm_flex_l	arm_add_l	arm_rot_l	elbow_flex_l	pro_sup_l	wrist_flex_l	wrist_dev_l
      2.64500000	     -3.27111279	     -4.44827093	      9.14806868	      0.80489744	      0.91983820	      0.44370899	     -1.63103338	      4.60226151	    -19.69040407	     10.87079400	     10.87079400	     17.25140997	     -0.09244792	     -4.72808551	     31.96619173	     -3.79492359	     -3.61918064	     17.71386664	     17.71386664	      5.70499630	     -6.24340765	      5.82602516	     -7.89779816	      5.98229648	      5.36685121	     40.87519958	    -16.03645839	     -6.66270336	     80.96918194	     44.68723862	      0.00000000	      0.00000000	    -12.60022162	     -6.81591090	      0.28368747	     22.68193007	     45.66372857	      0.00000000	      0.00000000
      2.65707143	     -3.33585276	     -4.44816388	      8.83646363	      0.80620031	      0.91836009	      0.44286022	     -2.00154952	      4.50417662	    -19.42934458	     11.24177980	     11.24177980	     17.82679984	      0.06571866	     -4.53383344	     31.73876660	     -3.80069164	     -3.58834859	     18.54764058	     18.54764058	      5.07483744	     -7.34065559	      5.78463954	     -7.75183913	      5.88042487	      5.50609667	     40.97111551	    -15.73405085	     -6.46006675	     81.72044611	     44.66334713	      0.00000000	      0.00000000	    -12.59037058	     -6.77989012	      0.20576463	     22.99826079	     45.67960381	      0.00000000	      0.00000000
      2.66914286	     -3.46468268	     -4.44485704	      8.50522444	      0.80758096	      0.91687294	      0.44189151	     -2.21307199	      4.31852592	    -19.32800227	     11.87920017	     11.87920017	     19.07630044	      0.66737096	     -2.62903296	     31.41152455	     -3.71904740	     -3.28363586	     19.01961430	     19.01961430	      3.76448322	     -8.93877568	      4.80021929	     -7.58297887	      5.75214009	      5.86975199	     40.50891420	    -15.78009078	     -6.17994244	     83.30593882	     44.65872235	      0.00000000	      0.00000000	    -12.63684548	     -6.76890823	     -0.18692493	     24.01721645	     45.76573391	      0.00000000	      0.00000000
      2.68121429	     -3.59917830	     -4.41136863	      8.17028054	      0.80904102	      0.91542275	      0.44081678	     -2.45450732	      4.12590690	    -19.02260627	     12.37887305	     12.37887305	     19.58807381	      0.70391336	     -2.52291112	     31.22364970	     -3.66720077	     -3.16495204	     19.74875129	     19.74875129	      3.03650514	     -9.95439627	      4.81915433	     -7.34979580	      5.61155840	      5.90104472	     40.38982134	    -15.37820943	     -5.89369160	     83.66660506	     44.65423834	      0.00000000	      0.00000000	    -12.44253430	     -6.69848597	     -0.22442982	     24.11384453	     45.78086585	      0.00000000	      0.00000000
      2.69328571	     -3.68843265	     -4.38122469	      7.83671231	      0.81055868	      0.91415165	      0.43962178	     -2.76576984	      3.93513059	    -18.74113741	     12.83528703	     12.83528703	     20.02298898	      0.75844547	     -2.51603669	     31.06628470	     -3.64557684	     -3.09231538	     20.55535826	     20.55535826	      2.47044094	    -10.75232102	      4.76909689	     -7.18020475	      5.49721997	      5.97284134	     40.15046898	    -15.06938792	     -5.62959786	     83.89058840	     44.64576984	      0.00000000	      0.00000000	    -12.12389595	     -6.63208823	     -0.24705825	     24.27352704	     45.79224336	      0.00000000	      0.00000000
      2.70535714	     -3.75157818	     -4.27801435	      7.51021856	      0.81216468	      0.91321709	      0.43830290	     -3.13161701	      3.66175921	    -18.42960033	     13.25258494	     13.25258494	     20.31008875	      0.80200102	     -2.54499242	     30.84891903	     -3.56988558	     -3.10032782	     21.27708728	     21.27708728	      2.09237763	    -11.38227360	      4.70752817	     -7.02374338	      5.28373224	      6.02003074	     39.66895146	    -14.73075608	     -5.35645148	     83.94158431	     44.63717325	      0.00000000	      0.00000000	    -11.76150499	     -6.60971935	     -0.25693574	     24.41418357	     45.80114009	      0.00000000	      0.00000000
      2.71742857	     -3.94446361	     -4.15072278	      7.21153535	      0.81355187	      0.91237658	      0.43665433	     -3.11432965	      3.23227810	    -18.20518473	     14.14518031	     14.14518031	     20.79502283	      0.79295062	     -2.19892289	     30.71940266	     -3.33305288	     -2.75229832	     21.79341998	     21.79341998	      1.36207218	    -12.72107008	      4.17840137	     -6.81611480	      5.05927864	      6.04887948	     38.94162108	    -14.74730527	     -4.71152383	     84.31297973	     44.62672142	      0.00000000	      0.00000000	    -11.15614298	     -6.51374189	     -0.35980138	     24.54225268	     45.83355577	      0.00000000	      0.00000000
      2.72950000	     -4.05351682	     -4.06714079	      6.92970286	      0.81502589	      0.91194893	      0.43494061	     -3.23088319	      2.87742307	    -17.94710611	     14.90653697	     14.90653697	     20.96108581	      0.72094845	     -2.26307957	     30.62631705	     -3.24919082	     -2.70540908	     22.54878964	     22.54878964	      1.29232598	    -13.30990975	      3.85247650	     -6.64945026	      4.90848621	      6.02639256	     38.20988067	    -14.53691040	     -4.38720910	     84.13791385	     44.62872785	      0.00000000	      0.00000000	    -10.52533951	     -6.44404675	     -0.38095062	     24.65206241	     45.84976657	      0.00000000	      0.00000000
      2.74157143	     -4.08137285	     -3.93820991	      6.66894418	      0.81654796	      0.91207271	      0.43307100	     -3.42833757	      2.47158512	    -17.68626614	     15.66734397	     15.66734397	     20.94083315	      0.61945718	     -2.38434804	     30.37029633	     -3.12812619	     -2.69937681	     23.18601944	     23.18601944	      1.47388606	    -13.79912763	      3.60587226	     -6.60144657	      4.70993339	      5.92769040	     37.31802437	    -14.32471520	     -4.06686315	     83.83670885	     44.62916126	      0.00000000	      0.00000000	     -9.86202903	     -6.41801308	     -0.38612682	     24.78751240	     45.86326118	      0.00000000	      0.00000000
      2.75364286	     -4.19361799	     -3.77866824	      6.40301928	      0.81784426	      0.91233824	      0.43104608	     -3.21361217	      1.90520847	    -17.45903254	     17.02223683	     17.02223683	     20.87982417	      0.27717825	     -2.75078894	     30.19443131	     -2.96271418	     -2.71324487	     23.80054346	     23.80054346	      1.77315855	    -14.30442172	      3.31858273	     -6.45458613	      4.48913750	      5.95393145	     36.27749715	    -14.29872218	     -3.58385635	     83.29567529	     44.63437097	      0.00000000	      0.00000000	     -8.98021348	     -6.34287610	     -0.40335921	     24.87772776	     45.88338066	      0.00000000	      0.00000000
      2.76571429	     -4.28811404	     -3.64823445	      6.14573385	      0.81906412	      0.91304275	      0.42896024	     -2.91954387	      1.33778703	    -17.20600611	     18.50519054	     18.50519054	     20.55471522	     -0.14437820	     -3.33748280	     29.89063040	     -2.83182890	     -2.77378578	     24.21400471	     24.21400471	      2.23420737	    -14.61909041	      3.08682921	     -6.33755801	      4.31691162	      5.96255535	     35.12427690	    -14.32155223	     -2.97984416	     82.55293770	     44.64434914	      0.00000000	      0.00000000	     -8.01196996	     -6.26885400	     -0.44580381	     24.86634026	     45.90991377	      0.00000000	      0.00000000
      2.77778571	     -4.32276984	     -3.51716936	      5.88153268	      0.82024056	      0.91410975	      0.42683173	     -2.53341899	      0.72502376	    -16.95234977	     20.24531797	     20.24531797	     20.04528471	     -0.64901516	     -4.04556150	     29.45841650	     -2.73600246	     -2.97034520	     24.54255622	     24.54255622	      2.83832466	    -14.73054785	      2.85105508	     -6.30049593	      4.14305100	      5.96013720	     33.91827595	    -14.32573648	     -2.43693777	     81.66851834	     44.65854559	      0.00000000	      0.00000000	     -7.00545491	     -6.20502004	     -0.49778463	     24.96238116	     45.93792560	      0.00000000	      0.00000000
      2.78985714	     -4.38349680	     -3.40967775	      5.57473082	      0.82132698	      0.91534930	      0.42477250	     -1.89724809	      0.07404129	    -16.64786444	     22.34648689	     22.34648689	     19.28826919	     -1.33745022	     -5.03267577	     28.95881586	     -2.69160685	     -3.26610560	     24.72142670	     24.72142670	      3.52758219	    -14.65015072	      2.62530575	     -6.23757889	      3.98906029	      5.99142867	     32.62162049	    -14.36361258	     -1.83105797	     80.52683945	     44.67926015	      0.00000000	      0.00000000	     -5.95447497	     -6.16129418	     -0.58547175	     25.08939483	     45.97223730	      0.00000000	      0.00000000
